Units are S.I. units (second, meters, Newtons, ...)
Angles are in degrees.
name walk
datarows 55
datacolumns 25
range 85.00000 38.00000
endheader
time Pelvis_PX Pelvis_PY Pelvis_PZ Pelvis_X Pelvis_Y Pelvis_Z FemurR_X FemurR_Y FemurR_Z TibiaR_X TibiaR_Y TibiaR_Z TalusR_X TalusR_Y TalusR_Z FemurL_X FemurL_Y FemurL_Z TibiaL_X TibiaL_Y TibiaL_Z TalusL_X TalusL_Y TalusL_Z
85.00000 1155.720 958.854 -46.256 -0.06748 -0.62421 5.76666 1.03372 -5.87464 27.58050 -1.42229 -11.30220 44.07770 1.63215 6.43951 1.52754 2.80820 -11.78660 -5.67418 2.37708 8.75534 -3.64384 -4.29698 6.27933 6.31935
86.00000 1164.210 959.878 -46.800 -0.06380 -0.59531 5.80199 1.27500 -5.89077 28.08930 -0.97307 -10.82390 40.45980 1.59218 6.05583 1.77911 2.43862 -11.90660 -6.48500 2.34565 9.07914 -3.75945 -4.13762 6.18964 6.76914
87.00000 1172.637 960.880 -47.515 -0.06167 -0.56736 5.86665 1.47826 -5.95932 28.46610 -0.59217 -10.29090 36.47050 1.45919 5.80874 1.82718 2.10190 -11.98580 -7.29618 2.33414 9.29154 -3.90036 -3.93253 6.12633 7.16186
88.00000 1180.995 961.980 -48.187 -0.05903 -0.54321 5.95317 1.63331 -6.05235 28.69160 -0.24532 -9.77019 32.13500 1.34153 5.76656 1.66882 1.80783 -12.02750 -8.10950 2.33859 9.38599 -4.05666 -3.68440 6.11895 7.49593
89.00000 1189.312 963.044 -48.790 -0.05259 -0.52377 6.05602 1.73460 -6.15110 28.75810 0.08342 -9.31543 27.51330 1.35748 5.95297 1.32956 1.56630 -12.03990 -8.92083 2.35229 9.37251 -4.21187 -3.39913 6.18823 7.77361
90.00000 1197.517 964.180 -49.436 -0.03995 -0.50778 6.17220 1.78374 -6.24861 28.67350 0.37700 -8.96830 22.70410 1.62333 6.34072 0.87044 1.38344 -12.03380 -9.71970 2.36468 9.28143 -4.34131 -3.07980 6.33828 7.99880
91.00000 1205.690 965.394 -49.851 -0.02084 -0.49179 6.29693 1.79073 -6.34683 28.45560 0.58888 -8.73999 17.83580 2.20705 6.86157 0.37262 1.25943 -12.02790 -10.49550 2.36195 9.16435 -4.41551 -2.72025 6.55593 8.17466
92.00000 1213.878 966.617 -50.142 0.00020 -0.47573 6.42005 1.76895 -6.44900 28.12120 0.66733 -8.58273 13.04380 3.06004 7.42619 -0.10320 1.18410 -12.03890 -11.24070 2.32933 9.08079 -4.40589 -2.30492 6.81633 8.30141
93.00000 1221.965 967.866 -50.243 0.01626 -0.46394 6.52921 1.73055 -6.56301 27.68190 0.58360 -8.39078 8.44231 3.99549 7.94637 -0.54510 1.13701 -12.07090 -11.94890 2.25150 9.07537 -4.28774 -1.81509 7.09640 8.37651
94.00000 1230.115 969.088 -50.336 0.02497 -0.45815 6.61632 1.68712 -6.70440 27.14790 0.35530 -8.04810 4.11938 4.76976 8.32305 -0.98208 1.09782 -12.11610 -12.61190 2.11490 9.16207 -4.04107 -1.24264 7.38675 8.39727
95.00000 1238.205 970.503 -50.259 0.02775 -0.45566 6.68009 1.64174 -6.87794 26.53920 0.05868 -7.51245 0.17250 5.21891 8.42147 -1.42911 1.05358 -12.16910 -13.21900 1.91346 9.32928 -3.64954 -0.59986 7.69355 8.36259
96.00000 1246.207 971.872 -50.156 0.02613 -0.45171 6.72358 1.58194 -7.07136 25.89560 -0.19382 -6.86829 -3.24793 5.34813 8.10836 -1.82500 0.99539 -12.23850 -13.76250 1.65087 9.55643 -3.10104 0.07468 8.02991 8.27536
97.00000 1254.240 973.292 -50.165 0.01952 -0.44232 6.75070 1.49531 -7.27220 25.27180 -0.31607 -6.28747 -5.95051 5.31111 7.37472 -2.05305 0.91130 -12.34460 -14.23950 1.33492 9.82320 -2.39264 0.72865 8.40917 8.13795
98.00000 1262.178 974.632 -50.109 0.00652 -0.42524 6.76307 1.39252 -7.48074 24.71540 -0.30295 -5.94157 -7.77654 5.29514 6.44983 -2.04912 0.78656 -12.51910 -14.65300 0.96819 10.11860 -1.53741 1.35178 8.83997 7.93319
99.00000 1270.348 976.179 -50.077 -0.01276 -0.39980 6.75845 1.30939 -7.70758 24.24770 -0.22063 -5.90457 -8.66858 5.37416 5.72089 -1.89202 0.60755 -12.79130 -15.01320 0.54796 10.43460 -0.56397 1.98766 9.32171 7.61881
100.00000 1278.460 977.656 -50.163 -0.03603 -0.36648 6.73527 1.28973 -7.95770 23.86010 -0.14538 -6.12069 -8.69843 5.46441 5.46173 -1.81309 0.36487 -13.16380 -15.33290 0.07467 10.74200 0.49490 2.67742 9.85074 7.14799
0.00000 1286.570 979.125 -50.354 -0.10286 -0.55737 12.76220 2.05199 -3.70702 31.72690 2.68954 -24.89390 0.62524 3.64018 16.91910 2.77952 0.12116 -7.47550 -0.13059 2.35784 -1.00185 7.86409 -0.71854 7.99050 14.40010
1.00000 1294.613 980.480 -50.590 -0.10591 -0.52841 12.75860 2.15565 -3.58107 31.91840 2.57168 -24.90450 2.36802 2.68121 16.07710 3.06301 0.02723 -7.73686 -0.50205 1.93301 -0.58020 8.65074 -0.02144 8.16429 14.18300
2.00000 1302.633 981.748 -50.930 -0.10904 -0.50309 12.82355 2.27207 -3.40069 32.09480 2.48751 -24.87610 3.98049 1.51910 15.28340 2.53922 -0.07799 -8.02722 -0.77057 1.45742 -0.15670 9.51296 0.66012 8.37860 13.81230
3.00000 1310.512 982.841 -51.399 -0.11163 -0.48905 12.96910 2.40308 -3.06133 32.24970 2.43132 -24.93060 5.20333 0.22050 14.51630 1.18778 -0.19583 -8.31255 -0.91066 0.91749 0.23112 10.46990 1.27372 8.63056 13.26660
4.00000 1318.420 983.699 -51.787 -0.10994 -0.49089 13.14595 2.54589 -2.59214 32.36800 2.41243 -24.85230 6.13914 -0.95301 13.70780 -0.42868 -0.33366 -8.55718 -0.94461 0.31200 0.55810 11.55990 1.81274 8.89068 12.52170
5.00000 1326.255 984.423 -52.179 -0.09940 -0.50856 13.27375 2.71012 -2.13771 32.43700 2.48315 -24.33790 7.15467 -1.77200 12.81970 -1.79119 -0.50215 -8.73484 -0.91981 -0.34792 0.78856 12.82930 2.35587 9.15580 11.54050
6.00000 1334.000 984.954 -52.574 -0.08449 -0.53994 13.30575 2.91439 -1.82380 32.44510 2.64997 -23.36650 8.46197 -2.23676 11.97280 -2.73118 -0.70185 -8.84509 -0.84882 -1.05791 0.85191 14.32130 2.95859 9.51680 10.27100
7.00000 1341.707 985.336 -52.886 -0.07568 -0.57748 13.24885 3.16043 -1.67130 32.35840 2.84558 -22.25650 9.92839 -2.60564 11.37670 -3.19626 -0.90825 -8.90681 -0.68867 -1.82699 0.66692 16.07780 3.50219 10.11590 8.66782
8.00000 1349.378 985.577 -53.137 -0.07522 -0.60928 13.13230 3.43413 -1.61608 32.11990 2.98993 -21.36700 11.26650 -3.08950 11.06280 -3.20847 -1.08877 -8.95924 -0.36966 -2.66644 0.21304 18.14090 3.83285 11.04020 6.68082
9.00000 1357.008 985.706 -53.238 -0.07880 -0.62664 12.98335 3.70692 -1.57920 31.69090 3.05967 -20.75490 12.31360 -3.62959 10.80170 -2.86027 -1.23302 -9.03180 0.18038 -3.56855 -0.45272 20.54440 3.88272 12.26710 4.25177
10.00000 1364.510 985.632 -53.249 -0.08358 -0.62748 12.82695 3.94692 -1.52385 31.08020 3.07977 -20.28150 13.06610 -4.08552 10.42240 -2.26400 -1.36231 -9.09844 1.02296 -4.49300 -1.24293 23.29730 3.64157 13.68040 1.36341
11.00000 1372.103 985.548 -53.153 -0.08772 -0.61438 12.67930 4.13569 -1.46820 30.32240 3.08128 -19.85620 13.55700 -4.41012 9.95103 -1.53559 -1.50750 -9.11233 2.17462 -5.38553 -2.03812 26.36300 3.12976 15.12130 -1.88765
12.00000 1379.652 985.314 -52.979 -0.08767 -0.59387 12.54695 4.27454 -1.49257 29.46350 3.07977 -19.44970 13.81950 -4.62297 9.47038 -0.77676 -1.68196 -9.04979 3.59455 -6.20985 -2.66700 29.66980 2.35631 16.42040 -5.21628
13.00000 1387.197 985.002 -52.712 -0.08359 -0.57835 12.43190 4.37861 -1.67789 28.54890 3.08111 -19.06470 13.89970 -4.75349 9.06266 -0.04041 -1.87299 -8.91143 5.21616 -6.96085 -2.93571 33.15260 1.19240 17.38090 -8.14369
14.00000 1394.765 984.583 -52.366 -0.08007 -0.57912 12.33625 4.46042 -2.04982 27.61090 3.09157 -18.75590 13.84540 -4.83646 8.85103 0.66693 -2.04420 -8.71934 6.97561 -7.65302 -2.72733 36.75660 -0.62443 17.80260 -10.21140
15.00000 1402.280 984.053 -51.966 -0.08273 -0.60293 12.26240 4.52555 -2.54083 26.66470 3.12133 -18.60280 13.69300 -4.90329 8.92438 1.35593 -2.15827 -8.51104 8.81891 -8.30129 -2.10789 40.39540 -3.05276 17.59810 -11.29070
16.00000 1409.852 983.417 -51.558 -0.09510 -0.65073 12.21000 4.57544 -3.02185 25.71140 3.17681 -18.64370 13.46500 -4.96648 9.26382 2.03251 -2.19581 -8.33499 10.70430 -8.92977 -1.35043 43.94490 -5.37879 16.89330 -11.54720
17.00000 1417.473 982.720 -51.099 -0.11535 -0.71636 12.17550 4.60677 -3.38010 24.75130 3.25894 -18.84630 13.17720 -5.01898 9.76205 2.69394 -2.15598 -8.23124 12.60380 -9.56390 -0.80994 47.28960 -6.68392 15.95810 -11.11850
18.00000 1425.110 981.960 -50.686 -0.14003 -0.78895 12.15190 4.60602 -3.57480 23.79000 3.36293 -19.10560 12.85160 -5.04741 10.27370 3.33245 -2.04953 -8.22263 14.49860 -10.19980 -0.73129 50.34840 -6.67882 15.06180 -10.03270
19.00000 1432.910 981.134 -50.105 -0.16743 -0.85874 12.12750 4.55535 -3.65043 22.83300 3.47450 -19.24450 12.51410 -5.04959 10.64830 3.93748 -1.89036 -8.30888 16.36670 -10.79670 -1.17269 53.05860 -5.77470 14.39790 -8.41172
20.00000 1440.408 980.072 -49.758 -0.19568 -0.91888 12.08815 4.44674 -3.64550 21.87100 3.58427 -19.14240 12.16760 -5.03922 10.78030 4.49664 -1.69235 -8.46377 18.17360 -11.29050 -2.03940 55.35690 -4.54565 14.05350 -6.53447
21.00000 1448.165 979.065 -49.275 -0.22521 -0.96726 12.02035 4.28696 -3.57849 20.87370 3.68488 -18.82270 11.78810 -5.03171 10.68900 4.99976 -1.47058 -8.63440 19.88270 -11.61170 -3.15556 57.18980 -3.40986 14.01410 -4.67326
22.00000 1455.997 978.053 -48.748 -0.25475 -1.00472 11.91510 4.10006 -3.48670 19.80260 3.76562 -18.42450 11.34020 -5.02469 10.52510 5.44363 -1.24037 -8.77576 21.46800 -11.72120 -4.32004 58.52900 -2.57999 14.19410 -2.95672
23.00000 1463.865 976.948 -48.315 -0.27963 -1.03136 11.77545 3.91740 -3.42168 18.64040 3.81968 -18.11000 10.79760 -5.00403 10.46960 5.83212 -1.01293 -8.86837 22.92190 -11.62790 -5.36043 59.37330 -2.04719 14.47490 -1.38268
24.00000 1471.835 975.846 -47.777 -0.29433 -1.04704 11.61330 3.76205 -3.39844 17.39580 3.85426 -17.97650 10.15130 -4.96475 10.60460 6.17566 -0.79485 -8.90089 24.25090 -11.36740 -6.18903 59.74190 -1.63816 14.76120 0.08348
25.00000 1479.900 974.755 -47.149 -0.29486 -1.05269 11.44235 3.64006 -3.41004 16.09400 3.88023 -17.98760 9.41881 -4.91295 10.87190 6.49190 -0.58879 -8.86547 25.46680 -10.97650 -6.81867 59.65800 -1.15650 15.02980 1.44161
26.00000 1488.078 973.615 -46.541 -0.28066 -1.04892 11.27565 3.54534 -3.43559 14.76890 3.90415 -18.05840 8.63609 -4.85349 11.16660 6.80017 -0.39376 -8.75260 26.58270 -10.47480 -7.31853 59.13860 -0.50900 15.29930 2.66042
27.00000 1496.310 972.540 -45.885 -0.25579 -1.03629 11.12770 3.46862 -3.48604 13.46060 3.92579 -18.09550 7.84625 -4.78634 11.41480 7.11388 -0.20878 -8.54533 27.61690 -9.86161 -7.74328 58.20470 0.26673 15.55240 3.72253
28.00000 1504.642 971.385 -45.295 -0.22545 -1.01647 11.01025 3.39924 -3.58090 12.20010 3.94436 -18.03960 7.07986 -4.70589 11.57940 7.43431 -0.02904 -8.24130 28.58260 -9.13630 -8.10129 56.88160 1.06130 15.70860 4.64799
29.00000 1513.080 970.337 -44.618 -0.19260 -0.99002 10.92545 3.32498 -3.70667 10.99550 3.96384 -17.91280 6.34383 -4.60182 11.66500 7.75557 0.15427 -7.86904 29.47010 -8.31796 -8.39516 55.18510 1.75359 15.68620 5.47441
30.00000 1521.585 969.277 -44.069 -0.15971 -0.95756 10.86880 3.23780 -3.82698 9.83959 3.98612 -17.79720 5.63195 -4.46805 11.73510 8.07098 0.34691 -7.47005 30.25750 -7.44452 -8.66935 53.11820 2.25603 15.46520 6.22062
31.00000 1530.187 968.243 -43.481 -0.12842 -0.92119 10.83335 3.13875 -3.91510 8.72253 4.00907 -17.76420 4.93841 -4.32087 11.86510 8.37503 0.54988 -7.08909 30.92770 -6.56909 -9.00114 50.68250 2.57071 15.09280 6.86769
32.00000 1538.838 967.300 -42.893 -0.09989 -0.88291 10.81435 3.03944 -3.95748 7.63904 4.02752 -17.81190 4.26369 -4.18903 12.05450 8.66551 0.75594 -6.75213 31.47350 -5.73514 -9.46092 47.89370 2.78936 14.64270 7.36789
33.00000 1547.500 966.340 -42.347 -0.07543 -0.84215 10.81075 2.95360 -3.94247 6.58920 4.03767 -17.88090 3.61329 -4.09317 12.22800 8.94402 0.95134 -6.47173 31.89760 -4.96310 -10.04620 44.78320 3.01672 14.14150 7.66610
34.00000 1556.285 965.465 -41.856 -0.05605 -0.79645 10.82090 2.88907 -3.86906 5.57250 4.04640 -17.93140 2.99500 -4.02181 12.32440 9.21923 1.12007 -6.25752 32.20880 -4.26197 -10.67490 41.39750 3.31022 13.54990 7.72909
35.00000 1565.120 964.540 -41.362 -0.04124 -0.74517 10.84080 2.84966 -3.76274 4.58756 4.06515 -17.96410 2.41956 -3.92783 12.34690 9.50778 1.24767 -6.10731 32.41650 -3.62294 -11.25040 37.78770 3.58854 12.82820 7.57789
36.00000 1574.023 963.596 -40.949 -0.02891 -0.69076 10.86810 2.84000 -3.65897 3.63682 4.09705 -18.00750 1.90056 -3.77453 12.34900 9.83452 1.32481 -6.01692 32.53090 -3.02495 -11.70870 33.99950 3.64144 12.01310 7.27727
37.00000 1582.997 962.740 -40.454 -0.01658 -0.63706 10.90550 2.86593 -3.57316 2.73147 4.13778 -18.08440 1.45536 -3.57779 12.38210 10.21580 1.34748 -5.98512 32.56270 -2.44205 -12.01590 30.06810 3.37467 11.21080 6.86287
38.00000 1591.930 961.771 -40.021 -0.00091 -0.58803 10.95860 2.93563 -3.49494 1.88632 4.17588 -18.18330 1.10129 -3.35999 12.44370 10.64610 1.31746 -6.00567 32.51890 -1.84181 -12.13700 26.01740 2.89604 10.51330 6.32773
